<svg xmlns="http://www.w3.org/2000/svg" width="512" height="512" viewBox="0 0 511.999 511.999"><path fill="#878787" d="M48.004 239.945H447.99v15.999H48.004zm79.998-67.997c0-6.616 5.384-12 12-12s12 5.384 12 12v4h15.999v-4c0-15.438-12.56-27.999-27.999-27.999s-27.999 12.56-27.999 27.999v59.998h15.999v-59.998z"/><path fill="#878787" d="M136.003 207.948h15.999v15.999h-15.999zm-48.002 0H104v15.999H88.001zm423.987 231.785l-167.991.104v-26.018c50.117-10.016 87.998-54.351 87.998-107.371v-42.502h-15.999v42.502c0 51.553-41.942 93.496-93.495 93.496H173.498c-51.553 0-93.495-41.943-93.495-93.496v-42.502h-16v42.502c0 53.02 37.881 97.353 87.998 107.371v26.136L0 440.049l.01 15.999 511.989-.316-.011-15.999zm-183.99.113L168 439.945v-24.141c1.821.091 3.653.138 5.498.138H322.5c1.843 0 3.676-.047 5.498-.138v24.042zM479.994 71.95h16V55.951h-31.999v24h-8v15.998h23.999zM280 95.949h23.999V79.951h-8v-24h-32V71.95H280zm47.997-15.999h103.998v95.998h16V63.951H311.999v111.997h15.998z"/><path fill="#878787" d="M336.001 159.946h16v15.999h-16zm23.996 0h16v15.999h-16zm23.996 0h16v15.999h-16zm24.006 0h15.999v15.999h-15.999zM96.003 263.941h303.993v15.999H96.003z"/></svg>