<svg xmlns="http://www.w3.org/2000/svg" width="512" height="512" viewBox="0 0 512.001 512.001"><path fill="#878787" d="M0 327.788h16.011v32.196h15.663v-32.196h168.463v32.196H215.8v-32.196h16.011v-55.69H0v55.69zm15.663-40.027h200.484v24.364H15.663v-24.364zm264.528-15.663v55.69h16.011v32.196h15.663v-32.196h168.463v32.196h15.663v-32.196h16.011v-55.69H280.191zm216.146 40.027H295.854v-24.364h200.483v24.364zm-296.549-48.206v-5.743c0-14.394-11.711-26.105-26.105-26.105H58.126c-14.394 0-26.105 11.711-26.105 26.105v5.743h15.663v-5.743c0-5.758 4.684-10.442 10.442-10.442h115.558c5.758 0 10.442 4.684 10.442 10.442v5.743h15.662zm280.191 0v-5.743c0-14.394-11.711-26.105-26.105-26.105H338.317c-14.394 0-26.105 11.711-26.105 26.105v5.743h15.663v-5.743c0-5.758 4.684-10.442 10.442-10.442h115.558c5.758 0 10.442 4.684 10.442 10.442v5.743h15.662z"/><path fill="#878787" d="M23.669 167.68h184.472v96.239h15.663V152.017H8.006v111.902h15.663z"/><path fill="#878787" d="M167.767 223.891v-9.936c0-12.082-9.83-21.911-21.911-21.911h-59.9c-12.082 0-21.911 9.83-21.911 21.911v9.936h15.663v-9.936a6.255 6.255 0 016.248-6.248h59.899a6.255 6.255 0 016.248 6.248v9.936h15.664zm136.092-56.211h184.473v96.239h15.663V152.017H288.196v111.902h15.663z"/><path fill="#878787" d="M447.956 223.891v-9.936c0-12.082-9.83-21.911-21.911-21.911h-59.899c-12.082 0-21.911 9.83-21.911 21.911v9.936h15.663v-9.936a6.255 6.255 0 016.248-6.248h59.899a6.255 6.255 0 016.248 6.248v9.936h15.663z"/></svg>