<svg xmlns="http://www.w3.org/2000/svg" width="512" height="512"><path fill="#878787" d="M104.075 439.947h87.692V232.169h-87.692v207.778zm15.64-192.138h56.412v176.499h-56.412V247.809z"/><path fill="#878787" d="M127.903 264.19h16.011v15.64h-16.011zm24.023 0h16.011v15.64h-16.011zm-24.023 32.031h16.011v15.64h-16.011zm24.023 0h16.011v15.64h-16.011zm-24.023 32.02h16.011v15.64h-16.011zm24.023 0h16.011v15.64h-16.011zm-24.023 32.02h16.011v15.64h-16.011zm24.023 0h16.011v15.64h-16.011zm-16.015 32.02h24.023v15.64h-24.023z"/><path fill="#878787" d="M0 72.053v255.813h48.034v32.21h15.64v-32.21h32.213v-15.639H15.64V87.693h480.72v192.51h-16.198v15.64h16.198v16.384H199.958v15.639h248.367v32.21h15.64v-32.21H512V72.053z"/><path fill="#878787" d="M384.096 280.205h16.011v15.64h-16.011zm32.02 0h16.011v15.64h-16.011zm32.02 0h16.011v15.64h-16.011zM239.989 104.079h32.023v15.64h-32.023zm-40.027 176.126h168.119v15.64H199.962zm-176.131 0h72.048v15.64H23.831z"/></svg>