<svg xmlns="http://www.w3.org/2000/svg" width="512" height="512"><path fill="#878787" d="M452.105 112.06H304.026v15.734h148.079c24.35 0 44.16 19.811 44.16 44.16 0 24.351-19.811 44.161-44.16 44.161v15.734c33.026 0 59.895-26.869 59.895-59.896s-26.869-59.893-59.895-59.893zM159.946 408.215h16.008v15.734h-16.008zm24.011 0h16.009v15.734h-16.009zm24.021 0h16.009v15.734h-16.009zm24.011 0h16.008v15.734h-16.008zm24.011 0h16.009v15.734H256zm24.011 0h16.009v15.734h-16.009zm24.011 0h16.008v15.734h-16.008zm24.021 0h16.009v15.734h-16.009zm24.011 0h16.009v15.734h-16.009zm24.011 0h16.008v15.734h-16.008zm24.01 0h16.009v15.734h-16.009zM79.91 472.255h16.008v15.734H79.91zm24.011 0h16.009v15.734h-16.009zm24.011 0h16.009v15.734h-16.009zm24.011 0h16.008v15.734h-16.008zm24.01 0h16.009v15.734h-16.009zm24.022 0h16.008v15.734h-16.008zm24.011 0h16.008v15.734h-16.008zm24.01 0h16.009v15.734h-16.009zm24.011 0h16.008v15.734h-16.008zm24.011 0h16.008v15.734h-16.008zm24.021 0h16.009v15.734h-16.009zm24.011 0h16.008v15.734H344.05z"/><path fill="#878787" d="M400.076 176.094H95.914c-23.242 0-42.664 16.646-46.984 38.642-19.063-4.888-33.196-22.215-33.196-42.781 0-24.35 19.811-44.16 44.16-44.16H256c35.233 0 63.897-28.664 63.897-63.898C319.897 28.664 291.233 0 256 0s-63.897 28.664-63.897 63.897h15.734c0-26.557 21.604-48.162 48.162-48.162s48.162 21.606 48.162 48.162S282.557 112.06 256 112.06H59.895C26.868 112.06 0 138.928 0 171.955c0 28.963 20.666 53.187 48.025 58.711V512h343.911v-47.888h-15.734v8.142h-8.142v15.734h8.142v8.278H63.759v-8.278h8.142v-15.734h-8.142V231.85h56.168v-15.734h-55.19c3.518-13.939 16.16-24.287 31.177-24.287 17.73 0 32.154 14.424 32.154 32.154V455.97h319.898V223.982c0-26.405-21.484-47.888-47.89-47.888zm32.155 232.125h-8.142v15.734h8.142v16.282H143.803v-16.282h8.142v-15.734h-8.142V223.982c0-12.363-4.711-23.649-12.43-32.154h268.704c17.73 0 32.154 14.424 32.154 32.154v184.236z"/></svg>