<svg xmlns="http://www.w3.org/2000/svg" width="6.033cm" height="33.335"><path fill="#FFF" fill-rule="evenodd" d="M160.494 14.199V.336h2.101v12.397h7.572v1.466h-9.673zM143.639.336h9.449v1.476h-7.348v4.484h6.377v1.476h-6.377v4.961h7.465v1.466h-9.566V.336zm-12.131 13.863h-2.101V1.812h-5.054V.336h12.274v1.476h-5.119v12.387zm-11.71 4.886h3.634v.567h-2.826v1.725h2.452v.568h-2.452v1.908h2.871v.564h-3.679v-5.332zm-7.918-4.686c-1.812 0-3.286-.558-4.42-1.676-1.134-1.117-1.701-2.523-1.701-4.218V6.039c0-1.688.567-3.094 1.701-4.218 1.134-1.123 2.608-1.685 4.42-1.685 1.877 0 3.404.56 4.581 1.681 1.176 1.12 1.764 2.528 1.764 4.222v2.466c0 1.695-.588 3.101-1.764 4.218-1.177 1.118-2.704 1.676-4.581 1.676zm4.245-8.379c0-1.269-.384-2.31-1.152-3.123-.768-.812-1.799-1.219-3.093-1.219-1.222 0-2.198.407-2.927 1.219-.729.813-1.093 1.854-1.093 3.123v2.485c0 1.283.364 2.33 1.093 3.142.729.813 1.705 1.219 2.927 1.219 1.301 0 2.334-.404 3.098-1.214.764-.809 1.147-1.858 1.147-3.147V6.02zm-8.965 13.634c.453.431.679.972.679 1.624v.949c0 .652-.226 1.192-.679 1.622-.452.43-1.039.645-1.761.645-.697 0-1.264-.215-1.7-.645-.437-.43-.655-.97-.655-1.622v-.949c0-.649.218-1.19.655-1.622.436-.432 1.003-.648 1.7-.648.722 0 1.309.215 1.761.646zm-1.761-.053c-.471 0-.846.156-1.126.469-.28.312-.42.713-.42 1.201v.956c0 .493.14.896.42 1.208.28.313.655.469 1.126.469.5 0 .897-.156 1.191-.467.294-.311.441-.715.441-1.21v-.956c0-.488-.148-.889-.443-1.201-.295-.313-.692-.469-1.189-.469zm-7.263 2.461h-2.9v2.355h-.808v-5.332h.808v2.409h2.9v-2.409h.808v5.332h-.808v-2.355zm-2.3-13.985h-7.54v6.122h-2.101V.336h2.101v6.265h7.54V.336h2.1v13.863h-2.1V8.077zm-12.354 16.34h-.803v-1.93l-2.063-3.402h.922l1.559 2.71 1.558-2.71h.923l-2.096 3.457v1.875zm-7.144-.367a2.713 2.713 0 01-.045-.498v-.487c0-.288-.094-.52-.283-.695-.188-.176-.441-.264-.759-.264h-1.382v2.311h-.808v-5.329h2.043c.653 0 1.152.13 1.497.388.344.259.517.635.517 1.128 0 .274-.08.512-.24.714-.16.203-.393.364-.7.484.329.095.564.249.708.463.143.214.215.478.215.793v.502c0 .166.021.315.062.446.041.132.112.24.213.323v.088h-.833a.58.58 0 01-.205-.367zm-.028-3.453c0-.3-.098-.533-.294-.698-.195-.164-.499-.247-.912-.247h-1.235v1.886h1.153c.456 0 .785-.077.986-.232.201-.155.302-.392.302-.709zm-9.757 3.897c-.648 0-1.179-.166-1.592-.497-.412-.33-.619-.788-.619-1.371v-3.541h.808v3.541c0 .408.131.727.392.957.261.231.598.347 1.011.347.437 0 .794-.116 1.068-.347.275-.23.413-.549.413-.957v-3.541h.808v3.541c0 .586-.214 1.044-.64 1.373-.427.33-.976.495-1.649.495zm-4.769-10.095c-1.813 0-3.286-.558-4.42-1.676-1.134-1.117-1.701-2.523-1.701-4.218V6.039c0-1.688.567-3.094 1.701-4.218C58.498.698 59.971.136 61.784.136c1.877 0 3.404.56 4.58 1.681 1.177 1.12 1.765 2.528 1.765 4.222v2.466c0 1.695-.588 3.101-1.765 4.218-1.176 1.118-2.703 1.676-4.58 1.676zm4.244-8.379c0-1.269-.384-2.31-1.151-3.123-.768-.812-1.799-1.219-3.093-1.219-1.223 0-2.199.407-2.927 1.219-.729.813-1.093 1.854-1.093 3.123v2.485c0 1.283.364 2.33 1.093 3.142.728.813 1.704 1.219 2.927 1.219 1.301 0 2.334-.404 3.098-1.214.764-.809 1.146-1.858 1.146-3.147V6.02zM49.677 24.494c-.648 0-1.179-.166-1.592-.497-.413-.33-.619-.788-.619-1.371v-3.541h.808v3.541c0 .408.13.727.392.957.261.231.598.347 1.011.347.437 0 .793-.116 1.068-.347.275-.23.412-.549.412-.957v-3.541h.808v3.541c0 .586-.213 1.044-.64 1.373-.426.33-.976.495-1.648.495zm-7.318-10.095c-1.792 0-3.274-.53-4.447-1.59s-1.76-2.431-1.76-4.113V5.839c0-1.682.566-3.053 1.696-4.113 1.13-1.06 2.588-1.59 4.372-1.59 1.728 0 3.093.411 4.095 1.233 1.003.822 1.489 1.868 1.461 3.137l-.021.058h-2.016c0-.845-.305-1.548-.917-2.109-.611-.562-1.479-.843-2.602-.843-1.187 0-2.143.397-2.868 1.19-.726.794-1.088 1.8-1.088 3.018v2.876c0 1.231.384 2.245 1.152 3.042.767.797 1.748 1.195 2.943 1.195.917 0 1.644-.106 2.181-.319.536-.213.936-.465 1.199-.757V8.734H42.22V7.267h5.62v5.066c-.37.514-1.011.987-1.925 1.419-.913.431-2.099.647-3.556.647zm-19.863 0c-1.813 0-3.286-.558-4.42-1.676-1.134-1.117-1.701-2.523-1.701-4.218V6.039c0-1.688.567-3.094 1.701-4.218C19.21.698 20.683.136 22.496.136c1.877 0 3.404.56 4.581 1.681 1.176 1.12 1.765 2.528 1.765 4.222v2.466c0 1.695-.589 3.101-1.765 4.218-1.177 1.118-2.704 1.676-4.581 1.676zm4.245-8.379c0-1.269-.384-2.31-1.152-3.123-.768-.812-1.799-1.219-3.093-1.219-1.222 0-2.198.407-2.927 1.219-.729.813-1.093 1.854-1.093 3.123v2.485c0 1.283.364 2.33 1.093 3.142.729.813 1.705 1.219 2.927 1.219 1.301 0 2.334-.404 3.098-1.214.764-.809 1.147-1.858 1.147-3.147V6.02zM.864.336h2.1v12.397h7.572v1.466H.864V.336zm40.167 23.517h2.912v.564h-3.72v-5.332h.808v4.768zm14.768-4.768h.968l1.387 2.08 1.394-2.08h.976l-1.895 2.644 1.936 2.688h-.963L58.17 22.3l-1.435 2.117h-.977l1.936-2.688-1.895-2.644zm60.21.567h-1.969v4.765h-.808v-4.765h-1.944v-.567h4.721v.567zm12.171 4.201h2.913v.564h-3.72v-5.332h.807v4.768z"/></svg>